<?xml version="1.0" encoding="UTF-8"?>
<svg width="104.42mm" height="104.42mm" version="1.1" viewBox="0 0 370.00001 370.00001" xmlns="http://www.w3.org/2000/svg">
 <g transform="translate(-41.429 -108.08)">
  <rect x="41.429" y="108.08" width="370" height="370" color="#000000" fill="#fff"/>
 </g>
 <g transform="translate(-41.429 -108.08)">
  <path d="m177.03 228.62c-2.9252 6.7954-4.9321 13.879-7.4256 20.857-3.1113 8.7071-4.3955 18.838-0.5174 27.732 4.5265 10.382 10.812 19.778 17.455 28.884 16.393 24.88 18.394 43.57 20.624 85.45-3.0213-22.565-8.3755-47.823-17.497-66.819-8.5301-17.351-26.579-35.463-28.74-52.819-0.76979-7.2435 0.24877-14.969 3.2591-21.592 5.2994-11.658 1.3681-16.305 12.843-21.694z" color="#000000"/>
  <path d="m285.06 239.9c2.8512 8.1174 8.2121 16.427 3.5788 24.478-4.4618 7.753-9.0077 15.493-12.74 23.619-12.028 26.184-13.854 52.899-13.407 80.195-5.383-45.28-1.4162-44.347 3.5094-66.523 3.2842-14.786 15.819-26.649 18.719-39.516 3.2248-14.307-4.9436-27.061-14.746-35.669 8.1815-7.3197 13.046 7.6104 15.086 13.417z" color="#000000"/>
  <path d="m254.08 276.57c-4.7241 31.773-8.2728 55.108-3.7957 84.38 0.98648 6.4497 6.2454 10.432 11.944 12.656 7.051 2.7516 13.789 6.6535 18.762 12.824 5.0146 6.223 3.516 14.443-0.17059 19.81-4.2544 6.1936-26.752 14.62-35.365 18.349-12.093 5.2363-27.74 14.87-29.842 5.9307-1.2654-5.3808-4.123-10.18-7.4558-14.425-12.013-15.3 8.4024-23.232 9.6079-29.994 5.8667-32.904-9.2432-77.586-20.15-102.36 14.648 25.315 29.646 70.822 22.672 105.62-1.113 5.5531-8.2777 8.1874-9.8526 13.351-1.9807 6.494 3.8508 11.025 7.2882 15.615 3.4011 4.5416 2.5656 15.597 10.718 10.947 10.607-6.0509 44.112-13.646 47.881-25.879 2.3304-7.5654 0.84714-16.055-5.8636-20.511-7.0338-4.6704-18.564-7.2479-20.647-14.745-7.4999-26.985-2.2844-63.021 4.2698-91.559z" color="#000000"/>
  <path d="m67.969 272.7c5.9682 6.3911 15.342 6.9794 23.455 6.373 6.7159-0.50194 14.11 2.4053 20.125-0.76562 19.505-10.283 26.239-22.689 50.89-33.756-18.197 1.4035-38.818 24.034-50.598 28.883-6.6312 2.7296-19.233 2.7928-28.974 0.83398-6.2394-1.3446-18.099-6.8212-13.941-12.23 0.65534-0.85242 8.8275-3.2218 13.46-5.3738 8.3891-3.8971 17.406-8.5701 21.498-17.619 3.2138-7.107 8.4628-17.333 16.668-18.139 8.1997-0.80475 16.38-1.8258 24.51-3.209 9.4641-1.6103 17.668-1.0752 26.225-1.4726 10.776-0.24522 23.692 0.10929 33.961-4.3672 15.503-6.7582 10.049-50.374-13.689-58.367-14.314-4.8198-33.283-2.0988-44.604 13.994-9.3543 16.052-43.606 47.414-48.604 30.787-6.5438-21.771 31.862-43.473 64.291-82.02-32.704 18.237-61.576 41.669-90.635 76.615-6.8134 8.1938-15.158 20.938-6.1992 30.137 9.0727 9.3161 21.951 11.471 33.047 9.1524 2.1169-0.44231 3.3776-2.7018 5.0664-4.0527-9.082 1.4312-19.181 1.0933-26.164-3.2637-13.897-8.6712-13.188-16.258-3.9805-27.363 22.54-28.649 35.554-41.499 79.572-73.276-37.695 35.632-71.337 63.38-60.076 76.757 13.884 16.492 40.548-8.2279 49.59-21.068 14.94-21.217 36.836-33.305 54.33-15.66 18.777 18.939 16.753 48.97-20.197 47.848-17.901 0.50262-35.226 2.8356-51.621 4.9414-4.8441 0.62897-9.2359 2.8576-12.961 5.7891-5.4053 4.2538-10.595 9.3246-13.232 15.84-4.8266 11.925-10.784 14.961-22.293 17.742-3.5782 0.8646-5.6601 4.0344-9.3125 6.1142-4.7481 2.7038-1.818 7.8291 0.39258 10.196z" color="#000000"/>
  <path d="m124.95 241.95c-7.1004-1.4084-14.642 2.2785-15.376 2.8617-5.4928 4.3671-11.483 8.0534-17.644 11.341-4.045 2.1584-8.5837 3.326-13.037 4.3726 10.256-5.0059 12.203-4.9963 17.45-8.296 8.5553-5.5212 16.553-13.059 27.002-14.503 6.9497-0.96051 13.633 2.541 20.611 1.8528 5.3849 0.0376 10.759-0.36586 16.14-0.48693 1.9785 6.5814-28.131 4.1738-35.146 2.8576z" color="#000000"/>
  <path d="m253.69 405.72c14.683-34.565 20.255-16.698 19.592-6.1573-8.0186-16.429-12.3-1.0748-19.592 6.1573z" color="#000000"/>
  <path d="m236.48 413.07c-17.616-11.715-17.973-6.6571-18.167 1.128-14.199-20.74 14.013-11.738 18.167-1.128z" color="#000000"/>
  <path d="m329.81 338.97c-3.2861 6.6386 2.0605 20.406-6.7127 24.67-13.515 6.5697-30.934 0.1399-54.719 4.0195 17.329-3.1414 45.032 6.8752 58.375-3.6035 7.4215-5.8282-1.2121-20.058 5.7164-24.341 6.2381-3.8562 22.781-2.795 29.072-1.7881 10.752 1.7211 10.563 24.023 2.7473 33.386s-27.457 6.7733-39.487 3.8631c-16.328-3.95-43.803-8.7058-55.26 0.70507 14.776-3.5539 29.309-1.7684 42.834 1.6856 21.211 5.4167 38.01 10.373 54.547-1.3594 9.4002-6.6691 9.4817-31.414 0.91543-38.662-5.4546-4.6153-35.759-3.1602-38.029 1.4255z" color="#000000"/>
  <path d="m360.36 342.74c18.43 7.9237-41.697 13.316-23.213-0.12189-9.3934 11.747 31.95 4.6306 23.213 0.12189z" color="#000000"/>
  <path d="m276.95 251.79c-15.399-6.3682-13.515 10.879-21.587 20.526 8.4216-2.593 9.3924 2.1513 15.295-3.6236 3.5215-3.445-2.2067-11.475 6.2915-16.903z" color="#000000"/>
  <path d="m173.64 267.68c7.6665 1.1937 1.1033 5.7022 5.2077 13.256 6.2451 11.493 7.4191-1.8765 14.405-1.6778-6.7451-5.0103-9.8516-16.064-19.613-11.578zm13.031 7.4946c-4.1961-4.1984-7.6744-3.1033-7.8398 1.0266-2.1289-6.7671 5.8814-7.8676 7.8398-1.0266z" color="#000000"/>
  <path d="m272.66 154.31c-11.164-1.3265-26.988-14.794-45.882 3.1956-5.5969 5.3289-6.4195 15.747-5.784 22.718 3.2561 35.721 28.716 36.161 51.029 22.27 10.314-6.421 22.164-10.589 32.99-14.041 7.5003-2.3917 15.421-4.8257 23.379-3.4863 3.8007 0.63967 6.2719 3.8475 9.4863 5.625 6.6756 3.6914 14.347 5.2318 21.779 6.8047 4.5271 0.95802 13.317 1.9611 15.331 2.7497-1.6593 0.55671-3.45-0.31826-4.9601 2.2637-2.2216 3.7983-4.7052 7.4769-8.2422 10.057-5.7334 4.182-10.379 8.9903-17.254 8.9844-12.073-0.0104-24.155 0.4603-36.219-0.041-7.61-0.31624-14.976 1.4759-22.389 2.7266-1.8741 1.4107-3.7502 2.8201-5.625 4.2305 6.0148-1.1127 11.946-2.9567 18.104-3.0312 13.002-0.15736 26.023-0.5702 39.012 0.0684 11.404 0.56069 19.112-7.0167 25.812-12.051 4.997-3.7542 10.377-13.252 14.715-14.533 5.0785-1.4999-3.9298-3.6552-7.4375-4.2559-7.868-1.4488-15.692-3.29-23.264-5.9414-3.6086-1.2636-6.0834-4.1012-9.2774-5.9473-4.6828-2.7066-10.247-2.2996-15.336-1.4805-7.854 1.2641-15.235 4.6072-22.893 6.7598-15.982 4.4928-31.976 13.91-47.239 16.969-12.965 2.598-23.116-10.831-24.989-20.903-1.605-8.6285-2.8286-20.589 4.8438-25.654 16.736-11.049 37.268 0.12216 53.007 0.70899 11.214 0.41811 40.489 1.7422 48.394-6.1736 12.245-12.263-8.0716-15.469-63.351-32.888 55.37 3.9686 120.9-0.55073 64.576 60.921 11.806-9.4818 47.101-38.014 21.83-52.74-13.649-7.9529-109.65-11.97-109.65-11.97 84.209 19.176 124.87 49.892 25.499 38.084z" color="#000000"/>
  <path d="m327.41 196.94c16.264-5.3889 22.011 2.9486 33.689 5.4328-11.145 6.7271-17.122-3.1971-22.772-3.1899-14.947 0.0191-16.894 4.5497-25.455 9.1697-7.2144 3.8931-14.743 8.407-28.331 12.882 23.166-10.54 27.846-19.317 42.869-24.295z" color="#000000"/>
  <path d="m223.21 181.28c0.3041 0.064-0.51827-1.7366-0.49545-1.6026-2.4367 7.3362-8.5345 4.7826-12.957 4.3421-0.34602-0.0343 0.71578 2.5584 0.65167 2.4427 3.1832 1.9099 11.641 4.1497 12.801-5.1822z" color="#000000"/>
  <path d="m269.93 421.46c-5.8068 7.4006-2.2125 17.704-5.5194 37.57 1.8861-14.35-1.8669-30.169 2.0136-37.516z" color="#000000"/>
  <path d="m256.51 424.7c-1.0873 12.861 5.0154 27.21 4.9003 39.158-0.70428-9.9462-6.8736-30.621-7.8758-37.881z" color="#000000"/>
  <path d="m241.34 430.9c7.6109 8.807 6.0254 13.435 15.247 31.863-10.843-19.439-8.3364-22.655-17.544-30.109z" color="#000000"/>
  <path d="m231.85 436.18c6.9084 9.3441 12.683 11.08 20.086 29.849-6.6281-14.004-14.614-22.148-23.228-27.95z" color="#000000"/>
  <path d="m276.71 417.46c-5.6805 7.4638-6.7294 18.147-10.857 37.888 3.3147-20.175 1.9459-27.217 6.341-35.434z" color="#000000"/>
  <path d="m261.98 423.23c0.17535 15.955 1.6135 22.546 1.4985 34.493-0.70428-9.9462-3.2174-26.558-4.2196-33.817z" color="#000000"/>
  <path d="m247.98 428.11c6.6007 13.605 3.3106 13.182 11.774 31.926-11.79-21.775-2.6542-12.301-14.261-31.119z" color="#000000"/>
  <path d="m236.59 433.97c5.5194 11.554 13.819 18.277 18.508 32.69-4.7972-11.983-16.95-27.009-20.828-31.107z" color="#000000"/>
  <path d="m263.34 260.63c1.9271-2.638 5.9624-4.1281 6.9183-0.12597 0.35562-6.4192-5.5761-4.4762-6.9183 0.12597z" fill="#fff" fill-rule="evenodd"/>
 </g>
</svg>
